<?xml version="1.0" encoding="UTF-8" standalone="no"?>
<!DOCTYPE svg PUBLIC "-//W3C//DTD SVG 20010904//EN"
              "http://www.w3.org/TR/2001/REC-SVG-20010904/DTD/svg10.dtd">

<svg xmlns="http://www.w3.org/2000/svg"
     width="1.77778in" height="1.77778in"
     viewBox="0 0 128 128">
  <path id="Selection"
        fill="none" stroke="black" stroke-width="1"
        d="M 40.25,31.00
           C 44.23,22.95 48.67,16.16 56.09,10.78
             71.02,-0.05 91.82,7.55 107.00,14.15
             113.78,17.11 120.97,20.55 125.00,27.00
             125.00,27.00 114.00,30.00 114.00,30.00
             107.59,28.50 101.26,30.09 95.00,31.69
             77.94,36.07 61.37,44.07 53.64,61.00
             49.82,69.37 50.84,71.83 50.82,80.00
             50.82,80.00 50.00,89.00 50.00,89.00
             41.28,84.11 39.69,69.43 35.00,62.00
             35.00,62.00 34.00,56.00 34.00,56.00
             34.00,56.00 34.00,47.00 34.00,47.00
             34.00,47.00 35.00,42.00 35.00,42.00
             37.29,39.03 38.47,34.60 40.25,31.00 Z
           M 47.00,9.00
           C 47.00,9.00 46.00,10.00 46.00,10.00
             46.00,10.00 46.00,9.00 46.00,9.00
             46.00,9.00 47.00,9.00 47.00,9.00 Z
           M 11.66,42.00
           C 19.04,32.14 35.27,14.89 47.00,11.00
             41.96,18.14 34.44,25.77 34.00,35.00
             32.00,37.00 31.51,40.25 30.86,43.00
             29.57,48.95 31.14,49.65 30.86,55.00
             30.52,60.13 30.40,66.89 34.00,71.00
             34.66,82.46 45.03,90.78 49.00,101.00
             38.90,99.81 24.25,89.93 17.04,82.91
             17.04,82.91 7.00,72.00 7.00,72.00
             7.00,72.00 4.00,66.00 4.00,66.00
             4.00,66.00 3.33,59.08 3.33,59.08
             3.33,59.08 4.00,53.00 4.00,53.00
             4.00,53.00 11.66,42.00 11.66,42.00 Z
           M 58.85,59.33
           C 65.43,51.11 77.82,56.36 84.00,56.00
             85.54,61.03 87.80,66.83 81.00,68.00
             81.00,68.00 79.00,65.02 79.00,65.02
             76.79,56.12 65.31,59.62 63.66,65.02
             62.51,68.78 66.30,71.18 68.00,74.00
             80.78,73.96 95.03,87.71 81.83,98.50
             72.31,106.29 63.33,100.86 57.00,101.00
             57.00,101.00 56.00,88.00 56.00,88.00
             56.00,88.00 61.00,89.00 61.00,89.00
             61.00,89.00 62.00,96.00 62.00,96.00
             62.00,96.00 65.00,95.00 65.00,95.00
             67.58,97.71 77.65,97.09 79.37,90.99
             80.17,88.14 77.35,85.51 76.00,83.00
             72.14,83.00 71.47,82.34 68.00,80.91
             60.30,77.73 59.35,77.01 55.00,70.00
             57.31,67.33 55.62,63.36 58.85,59.33 Z
           M 7.00,79.00
           C 20.26,97.52 45.31,109.51 68.00,108.99
             75.27,108.82 79.52,105.94 87.00,108.99
             70.51,120.31 61.72,119.81 43.00,120.00
             35.21,120.08 34.23,120.98 26.00,118.85
             19.54,117.17 12.43,116.24 7.93,110.82
             -0.14,101.09 4.27,90.37 2.00,81.00
             2.00,81.00 7.00,79.00 7.00,79.00 Z" />
</svg>
